/* XPM */
static char *_14194d1a00745c0881aa6e0cc430129zrCrQPIix90aHUqn[] = {
/* columns rows colors chars-per-pixel */
"32 32 184 2 ",
"   c None",
".  c #171425",
"X  c #181425",
"o  c #391F21",
"O  c #391E22",
"+  c #17233D",
"@  c #2A2A3E",
"#  c #412A2E",
"$  c #55302B",
"%  c #5D362D",
"&  c #623B31",
"*  c #613C31",
"=  c #643E33",
"-  c #2B2C40",
";  c #2E2F43",
":  c #343547",
">  c #343448",
",  c #36374A",
"<  c #3A3A4C",
"1  c #343B54",
"2  c #403F50",
"3  c #39455F",
"4  c #144070",
"5  c #4B404C",
"6  c #59454A",
"7  c #404051",
"8  c #444353",
"9  c #72544E",
"0  c #464D66",
"q  c #485669",
"w  c #525567",
"e  c #475A7C",
"r  c #525B77",
"t  c #5A647E",
"y  c #61697E",
"u  c #834D3B",
"i  c #9D614A",
"p  c #A56346",
"a  c #A16A4C",
"s  c #AC735C",
"d  c #B37451",
"f  c #BB7D57",
"g  c #B97C5B",
"h  c #B57C62",
"j  c #C1724C",
"k  c #C67750",
"l  c #C97A52",
"z  c #D5885B",
"x  c #C1876F",
"c  c #DC9161",
"v  c #C48A71",
"b  c #CB9075",
"n  c #124E89",
"m  c #114D8A",
"M  c #11528F",
"N  c #0F5B9B",
"B  c #27578B",
"V  c #2A5A8E",
"C  c #315886",
"Z  c #335E8C",
"A  c #3D6089",
"S  c #2F6093",
"D  c #326395",
"F  c #396999",
"G  c #3C6C9C",
"H  c #3F6E9E",
"J  c #0D60A1",
"K  c #0A6DB3",
"L  c #0876BF",
"P  c #2F70A7",
"I  c #506A90",
"U  c #597297",
"Y  c #527D95",
"T  c #6B758D",
"R  c #667691",
"E  c #6F7890",
"W  c #737E94",
"Q  c #4674A2",
"!  c #4977A4",
"~  c #4E7FA8",
"^  c #867A81",
"/  c #8F7F83",
"(  c #3A81B7",
")  c #7D869B",
"_  c #5790AB",
"`  c #6A84A6",
"'  c #6287AD",
"]  c #658AAF",
"[  c #7D8AA1",
"{  c #7D8AA5",
"}  c #728CAD",
"|  c #6C9AB3",
" . c #6F9ABF",
".. c #7191B3",
"X. c #7F9CBC",
"o. c #6AA2BD",
"O. c #0483D1",
"+. c #0388D7",
"@. c #138ED8",
"#. c #288BCB",
"$. c #289BDF",
"%. c #0191E3",
"&. c #0095E9",
"*. c #039AEA",
"=. c #08A5EB",
"-. c #18ABED",
";. c #13B9EE",
":. c #2EA1E4",
">. c #31A4E7",
",. c #33AEEE",
"<. c #3AB3E8",
"1. c #77A7CC",
"2. c #3ACBDC",
"3. c #19C4F0",
"4. c #24D8F3",
"5. c #29E3F4",
"6. c #52C0D1",
"7. c #5BCCDE",
"8. c #4AD2ED",
"9. c #49D8F4",
"0. c #65D2E1",
"q. c #6DDBE8",
"w. c #70C3F3",
"e. c #61EEF7",
"r. c #7AE6F1",
"t. c #818493",
"y. c #B99084",
"u. c #8693AC",
"i. c #9198A8",
"p. c #869EBA",
"a. c #9BA0AF",
"s. c #8BA0BB",
"d. c #83ABBA",
"f. c #90A2BB",
"g. c #97A4BB",
"h. c #A8A3AD",
"j. c #A0A6B6",
"k. c #B6AFB6",
"l. c #C79C8C",
"z. c #C5B7B8",
"x. c #C2BABF",
"c. c #CFC0BF",
"v. c #95A9C1",
"b. c #98AEC3",
"n. c #9AAFC8",
"m. c #86B4C9",
"M. c #85B9CF",
"N. c #8BB8D9",
"B. c #A3AFC4",
"V. c #AAB2C3",
"C. c #A0B7CA",
"Z. c #AAB5C8",
"A. c #AEB8CA",
"S. c #B1BBCD",
"D. c #A0B9D0",
"F. c #BDC0CD",
"G. c #AFC1D4",
"H. c #B7C1D2",
"J. c #BCC7D7",
"K. c #93C3E3",
"L. c #98C6E1",
"P. c #9DD0E2",
"I. c #ADD7E4",
"U. c #98E0F8",
"Y. c #88F2F9",
"T. c #B9E0E9",
"R. c #BCE3EC",
"E. c #C4CCDA",
"W. c #C1CFDE",
"Q. c #E4D2CB",
"!. c #ECDED9",
"~. c #C8DAE5",
"^. c #CCD8E4",
"/. c #D5DBE5",
"(. c #D9DEE7",
"). c #DCE2EA",
"_. c #C9EFF5",
"`. c #CFEBFB",
"'. c #CAF9FC",
"]. c #D7FBFD",
"[. c #E7E4E7",
"{. c #EFF8FE",
"}. c #F1F3F6",
"|. c #F2FEFE",
/* pixels */
"                                                                ",
"                                                                ",
"                                                                ",
"                                                                ",
"                        O O O O O O O O                         ",
"                        * = = = = & % $                         ",
"                    O * a f f f f d p u # .                     ",
"                    5 9 g c c c c z k i 6 :                     ",
"                n Z R / h l l l l k j s ^ y : .                 ",
"                n F p.k.l.b v x x x x y.h.) < X                 ",
"                n Q G.[.!.Q.c.z.z.z.z.x.F.i.7 X                 ",
"                n ! D.^.).(.E.H.S.A.A.V.j.t.2 .                 ",
"                    ! ] v.Z.B.g.u.{ { E w 2                     ",
"                    G ~ o.m.C.b.| _ _ Y q 2                     ",
"                n G X.M.7.q.R.T.0.2.2.6.d.t.2 .                 ",
"                n G n.I.r.Y.].'.e.5.4.8.P.a.8 X                 ",
"                n G n.~._.].|.'.e.4.;.<.L.a.8 X                 ",
"                n G n./.}.{.`.U.9.3.=.:.N.i.7 X                 ",
"                n G n./.}.`.w.,.-.=.*.$.1.) < X                 ",
"                4 A f.J.W.K.>.&.&.%.+.#. .W > X                 ",
"                + 3 [ s.' ( @.&.&.+.K P ..W > X                 ",
"                X > W } D N L O.O.L N S ` T > X                 ",
"                X > W } D M N J J N M V U t ; X                 ",
"                X > T ` S n n n n n n B I r - X                 ",
"                X ; t U V n n n n n n B I r - X                 ",
"                . @ 0 e C V S D D S V C e 0 @ .                 ",
"                    @ 1 e U ` } } ` U e 1 @                     ",
"                    . @ 0 t T W W T t 0 @ .                     ",
"                        @ ; > > > > ; @                         ",
"                        . X X X X X X .                         ",
"                                                                ",
"                                                                "
};
