/* XPM */
static char *result[] = {
/* columns rows colors chars-per-pixel */
"544 32 8 1 ",
"  c #211F30",
". c #CC3048",
"X c #E44A4A",
"o c #28860F",
"O c #72A11D",
"+ c #F18B72",
"@ c #A4CC42",
"# c None",
/* pixels */
"################################################################################################################################################################################################################################################################################################################################################################################################################################################################################################################################################################",
"################################################################################################################################################################################################################################################################################################################################################################################################################################################################################################################################################################",
"################################################################################################################################################################################################################################################################################################################################################################################################################################################################################################################################################################",
"################################################################################################################################################################################################################################################################################################################################################################################################################################################################################################################################################################",
"################################################################################################################################################################################################################################################################################################################################################################################################################################################################################################################################################################",
"#############################################################################################################################################################################################################  ##############################  ##############################  #################################################################################################################################################################################################################################################################################",
"#############################################################################################################################################################################  ############################## @ ############################# @ ############################# @ #############################  ##############################  #################################################################################################################################################################################################################",
"#############  ##############################  ##############################  ##############################  ##############################  ############################## @ ############################  oO ###########################  oO ###########################  oO ############################ @ ############################# @ ############################   #############################################################################################################################   #############################   #################",
"############# @ ############################# @ ############################# @ ############################# @ ############################# @ ###########################   oO ########################## @o o ########################## @o o ########################## @o o ##########################   oO ##########################   oO ########################### @O ###########################    ############################    ############################    ############################# @O ############################ @O ################",
"###########   oO ##########################   oO ##########################   oO ##########################   oO ##########################   oO ######################### @Oo o ##########################   oo   ########################   oo   ########################   oo   ####################### @Oo o ######################### @Oo o #########################    oO ########################## @OO ########################### @OO ########################### @OO ##########################    oO #########################    oO ###############",
"########## @Oo o ######################### @Oo o ######################### @Oo o ######################### @Oo o ######################### @Oo o #########################   ooo    ######################## .  .X. ######################## .  .X. ######################## .  .X. ######################   ooo    ######################   ooo    ##################### @Ooo o ########################     oO ########################     oO ########################     oO ######################## @Ooo o ######################## @Ooo o ###############",
"##########   ooo    ######################   ooo    ######################   ooo    ######################   ooo    ######################   ooo    ####################### . X .XX. ###################### XXXXXXX. ###################### XXXXXXX. ###################### XXXXXXX. ###################### . X .XX. ###################### . X .XX. ####################    ooo     ################### @Oooo o ####################### @Oooo o ####################### @Oooo o ########################    ooo     ####################    ooo     ###########",
"########### . X .XX. ###################### . X .XX. ###################### . X .XX. ###################### . X .XX. ###################### . X .XX. ##################### XXXXXXXXX. ##################### ++X+XXX. ###################### ++X+XXX. ###################### ++X+XXX. ##################### XXXXXXXXX. #################### XXXXXXXXX. #################### .X X .XXX. ##################    oooo      ##################    oooo      ##################    oooo      #################### .X X .XXX. #################### .X X .XXX. ##########",
"########## XXXXXXXXX. #################### XXXXXXXXX. #################### XXXXXXXXX. #################### XXXXXXXXX. #################### XXXXXXXXX. #################### X++X+XXXX. ##################### ++XXX.X. ###################### ++XXX.X. ###################### ++XXX.X. ##################### X++X+XXXX. #################### X++X+XXXX. ################### XXXXXXXXXXX. ################## .X  X .XXXX. ################## .X  X .XXXX. ################## .X  X .XXXX. ################## XXXXXXXXXXX. ################## XXXXXXXXXXX. #########",
"########## X++X+XXXX. #################### X++X+XXXX. #################### X++X+XXXX. #################### X++X+XXXX. #################### X++X+XXXX. #################### X++XXXX.X. ##################### XXXXXXX. ###################### XXXXXXX. ###################### XXXXXXX. ##################### X++XXXX.X. #################### X++XXXX.X. ################### X++X+XXXXXX. ################# X++XX+XXXXXXX. ################ X++XX+XXXXXXX. ################ X++XX+XXXXXXX. ################# X++X+XXXXXX. ################## X++X+XXXXXX. #########",
"########## X++XXXX.X. #################### X++XXXX.X. #################### X++XXXX.X. #################### X++XXXX.X. #################### X++XXXX.X. #################### .XXXXXXXX. ##################### .XXXXXX. ###################### .XXXXXX. ###################### .XXXXXX. ##################### .XXXXXXXX. #################### .XXXXXXXX. ################### X++XXXXXX.X. ################# X++XXXXXXXX.X. ################ X++XXXXXXXX.X. ################ X++XXXXXXXX.X. ################# X++XXXXXX.X. ################## X++XXXXXX.X. #########",
"########## .XXXXXXXX. #################### .XXXXXXXX. #################### .XXXXXXXX. #################### .XXXXXXXX. #################### .XXXXXXXX. #################### .XXXXXXXX. ##################### .XXXXXX. ###################### .XXXXXX. ###################### .XXXXXX. ##################### .XXXXXXXX. #################### .XXXXXXXX. ################### .XXXXXXXXXX. ################# .XXXXXXXXXXXX. ################ .XXXXXXXXXXXX. ################ .XXXXXXXXXXXX. ################# .XXXXXXXXXX. ################## .XXXXXXXXXX. #########",
"########### .XXXXXX. ###################### .XXXXXX. ###################### .XXXXXX. ###################### .XXXXXX. ###################### .XXXXXX. ##################### .XXXXXXXX. ##################### .XXXXXX. ###################### .XXXXXX. ###################### .XXXXXX. ##################### .XXXXXXXX. #################### .XXXXXXXX. #################### .XXXXXXXX. ################### .XXXXXXXXXX. ################## .XXXXXXXXXX. ################## .XXXXXXXXXX. ################### .XXXXXXXX. #################### .XXXXXXXX. ##########",
"########### ........ ###################### ........ ###################### ........ ###################### ........ ###################### ........ ###################### .XXXXXX. ####################### .XXXX. ######################## .XXXX. ######################## .XXXX. ####################### .XXXXXX. ###################### .XXXXXX. ##################### .......... #################### .......... #################### .......... #################### .......... #################### .......... #################### .......... ##########",
"############ ...... ######################## ...... ######################## ...... ######################## ...... ######################## ...... ####################### ........ ####################### .XXXX. ######################## .XXXX. ######################## .XXXX. ####################### ........ ###################### ........ ###################### ........ ######################          ######################          ######################          ###################### ........ ###################### ........ ###########",
"#############      ##########################      ##########################      ##########################      ##########################      ######################### ...... ######################## ...... ######################## ...... ######################## ...... ######################## ...... ######################## ...... ########################        ########################################################################################################################        ########################        ############",
"#############################################################################################################################################################################      ########################## .... ########################## .... ########################## .... ##########################      ##########################      #############################################################################################################################################################################################################",
"##############################################################################################################################################################################################################    ############################    ############################    ##############################################################################################################################################################################################################################################################################",
"################################################################################################################################################################################################################################################################################################################################################################################################################################################################################################################################################################",
"################################################################################################################################################################################################################################################################################################################################################################################################################################################################################################################################################################",
"################################################################################################################################################################################################################################################################################################################################################################################################################################################################################################################################################################",
"################################################################################################################################################################################################################################################################################################################################################################################################################################################################################################################################################################",
"################################################################################################################################################################################################################################################################################################################################################################################################################################################################################################################################################################",
"################################################################################################################################################################################################################################################################################################################################################################################################################################################################################################################################################################",
"################################################################################################################################################################################################################################################################################################################################################################################################################################################################################################################################################################",
"################################################################################################################################################################################################################################################################################################################################################################################################################################################################################################################################################################",
"################################################################################################################################################################################################################################################################################################################################################################################################################################################################################################################################################################"
};
