/* XPM */
static char *_c13390b6e884d14b6be99b833714ddfwuVWuFKigWX8Zh9J[] = {
/* columns rows colors chars-per-pixel */
"32 32 152 2 ",
"   c None",
".  c #4D2711",
"X  c #4F2913",
"o  c #4F2E19",
"O  c #512C15",
"+  c #53321D",
"@  c #523420",
"#  c #553A27",
"$  c #5B3923",
"%  c #563C2A",
"&  c #5B3E2A",
"*  c #5E412D",
"=  c #5F4532",
"-  c #5E4837",
";  c #5A4739",
":  c #5C4B3C",
">  c #63442F",
",  c #624531",
"<  c #634935",
"1  c #634B3A",
"2  c #69503E",
"3  c #5C4E40",
"4  c #5E5245",
"5  c #5F5548",
"6  c #614F42",
"7  c #645343",
"8  c #6A5542",
"9  c #61564A",
"0  c #65594C",
"q  c #6C5C4B",
"w  c #715E4E",
"e  c #655D52",
"r  c #6A5E51",
"t  c #705E50",
"y  c #73604F",
"u  c #676055",
"i  c #6C6153",
"p  c #6C655A",
"a  c #6F695D",
"s  c #736353",
"d  c #736659",
"f  c #736A5C",
"g  c #7A6D5D",
"h  c #746E62",
"j  c #796F61",
"k  c #767165",
"l  c #7A7265",
"z  c #7A7669",
"x  c #7D796D",
"c  c #7F7C71",
"v  c #827666",
"b  c #837768",
"n  c #817B6F",
"m  c #807A6C",
"M  c #84796D",
"N  c #827D6E",
"B  c #817B6E",
"V  c #817C70",
"C  c #807D71",
"Z  c #807D72",
"A  c #817D72",
"S  c #817E72",
"D  c #807E73",
"F  c #817E73",
"G  c #817F73",
"H  c #827E72",
"J  c #827E73",
"K  c #837F73",
"L  c #847D72",
"P  c #847E72",
"I  c #847E73",
"U  c #817F74",
"Y  c #827F74",
"T  c #837F74",
"R  c #817E72",
"E  c #828073",
"W  c #858172",
"Q  c #838074",
"!  c #838175",
"~  c #848074",
"^  c #858074",
"/  c #848174",
"(  c #848075",
")  c #858175",
"_  c #868175",
"`  c #848275",
"'  c #868275",
"]  c #878275",
"[  c #858176",
"{  c #848276",
"}  c #858277",
"|  c #858377",
" . c #868276",
".. c #878276",
"X. c #868377",
"o. c #868475",
"O. c #878476",
"+. c #878577",
"@. c #858276",
"#. c #888275",
"$. c #888376",
"%. c #888476",
"&. c #898476",
"*. c #868378",
"=. c #868479",
"-. c #878479",
";. c #878579",
":. c #878479",
">. c #888478",
",. c #888578",
"<. c #888579",
"1. c #898579",
"2. c #8A8579",
"3. c #888678",
"4. c #898678",
"5. c #888679",
"6. c #898679",
"7. c #8A8679",
"8. c #8A8779",
"9. c #88867A",
"0. c #88867B",
"q. c #89867B",
"w. c #89877B",
"e. c #8A877A",
"r. c #89877C",
"t. c #89867A",
"y. c #8A8878",
"u. c #8A887A",
"i. c #8B887A",
"p. c #8B897A",
"a. c #8B897B",
"s. c #8C8979",
"d. c #8C897A",
"f. c #8C887B",
"g. c #8A887D",
"h. c #8C897C",
"j. c #8D897D",
"k. c #8D8A7E",
"l. c #8D8A7F",
"z. c #8C897D",
"x. c #8E8B80",
"c. c #8F8B82",
"v. c #8F8C82",
"b. c #8F8D83",
"n. c #8F8C80",
"m. c #918F83",
"M. c #918F85",
"N. c #908E82",
"B. c #929084",
"V. c #939085",
"C. c #949287",
"Z. c #99978C",
/* pixels */
"                        s g g l l l d                           ",
"                        l ,.,.i i ,.o.,                         ",
"                    < < l ,.,.i d ,.,.* <                       ",
"                w n d q l ,.,.P l ,.,.1 q  .w                   ",
"            , x x 1 N ,.g y.,.d.y.y.y.y -.z s , *               ",
"          & -. .j z W W s ,.d.d.j.y.j.E  .-.,.& x D             ",
"        $ g.l x  .o.%.,.& ,.i a a x x.,.E -.*.-.< D  .          ",
"      >  .d n  . .o.j.p & r & & , 7 h z ! ,.c Y  .q x d         ",
"       .D l  .,.,.f 5 % = 8 d d f h 7 1 z h x.D D D *  .m       ",
"    + x , ,.,.,.,.4 + i d d f h l l p d x 7 p g.D c E Y D       ",
"    s s s f v.V.3 % d d f f h k l f z k k l 7 p r. .f < s $     ",
"M g.Y D x c P r * f d k 0 0 0 i i 9 i i z k z * P n  . . . . .> ",
"v.! ! D D D D r p f f 0 p h k k k k k h f k z s M.D  . . . . .> ",
"m. .j z ! Y D # a k p i k k k k l l l k q k k z r D  . .s $.$., ",
"V.*.Y 0  . .j.- k h x 0 k l l z z z z l i k k k * D ,.,.q z d., ",
"C.,.,.,.,.-.j.- k k k r z z x z z z z z d k k k * ,.,.,.$.j.g.> ",
"C.,.,.,.,.,.,.- k z z a z z x z x x z x f k k f *  .-.j.j.j.g.> ",
"Z.V.v.v.l k q + x x x f z z x x x x x x f z h h d d g l m.#.m.> ",
"h p p p 8 -.D D h x z f x z x x x x x x f z z 8 x n D f e u i O ",
"h O D k # -. . .g.x x f i i r i q 0 0 i f z d h ! x r.l -.,.u X ",
"X X ! x x x -.*.-.d x x D D D Y Y h l D z r f  . . .; D  .j.X   ",
"    k D x < g.r.,.-.g q x x x x x x x f q ,. .,.-.p 8 D ,.:     ",
"    e ! t 1 a i ,.,. .W j 2 8 8 8 8 z x r.r.r.,. .: q -.,.X     ",
"      1 -.g.< f m.,.%. .g ,.d. . . .,. .-.r.r.D 4 f x n 7       ",
"      & c -.Y w i x ,.,.b %.%.%. . . .s x.D 0 : x n n : .       ",
"        i z ,.r.w & i d v ,.d.M n %. .8 q 0 7 N x x r +         ",
"          r a V. .! x O v j.d.l l ,.,.* O x ,.N ,.9 X           ",
"            7 6 ,.*.D x b j.j.m.l.d.,.8 ! ,.,.l 0 .             ",
"                0 e h l d  .D x x V  ., k 7 7 #                 ",
"                  @ 3 9 7 p p i u u i + 7 + o                   ",
"                        7 0 0 e e e e .                         ",
"                          . . . . . .                           "
};
