/* XPM */
static char *_e20921800e84414c07f60e097736515venX7yHxlohSTnS1[] = {
/* columns rows colors chars-per-pixel */
"32 32 6 1 ",
"  c #3E734E",
". c #9E7C59",
"X c #B08A63",
"o c #4D9262",
"O c #C2986D",
"+ c white",
/* pixels */
" .XXXXX. .X. .XXXX.. oo .XXXXX..",
".XOOOOOX.XXX.XOOOOXX.   .XXOOOX.",
"XOXOOOOX.....XOOOOX.. ..X.XXOXX.",
"XOOXXXX.XOOOX.XXXX.XX.XXOX.XXXXX",
"XOOX....XXXXX.....XOX.XOOOX.XXXX",
"XOOX..........XXX.XX.XOOOOOX.XXO",
"XOOX..XXXXX.XXOOX....XOOOOXXX.XX",
".XX...XOOOX.XOOO.XXXX.XOXX.XOX.X",
" ..XX.XOOOOX.XOO.XOOOX.X..XOOOX.",
".X.OX.XOOOX.X.XX.OOOOOX.X.XOOOOX",
"XX.OX.XXOX.XOX...XOOOOO..XOOOOX.",
".X.OX...X.XOOOX...XOXXXOX.XOOXX.",
" ..XX.XX.XOOOOX...XX..XOOX.XX.. ",
".XX...XOX.XOOOX...X.X.XOOOX..XX.",
"XOOX.XOOOX.XXXX.XO.X.XOOOOX.XOX.",
"XOOX.XOOOX.....XOO..XXXOOOX.XX.X",
"XOOX.XX.......XOOOOO...XOXX...XO",
"XOOX...XXOX...OOOOOX.......XX.XO",
".XX.XX.XOOOXXX..OOX.....XOOOX.XO",
".X.XOX.XOOOOX.X.OX.XXXX.XOOOX.XO",
" ..XX..XOOOX.X.X...XOOOX.XOX...X",
"o  ..XX.XOOX..XX...XOOOOX.XX.XX.",
"o .XXOOX.XOXXXOX...XOOOX.X...XO.",
"  .XOOOOX..OOOOOX...XOX.XOXX.XO.",
"..XOOOOX.X.XOOOOO.XX.X.XOOOX.XO.",
"XX.XOOOX..X.XOOOX.OOX.XOOOOX.XX.",
"XXX.XOX.XXOX.XXXX.OOOX.XOOOX...X",
"XOXX.XXXOOOOX....XOOXX.XXXXX..XO",
"XOOXX.XOOOOOX.XX.XXX..........XO",
"XOXXXX.XOOOX.XOX.....XXXXX....XO",
".XXXXXX.XOXX.XX.XXXX.XOOOX.XXXXO",
"...XXOXX.X.. ..XOOOOX.....XOOOOX"
};
