/* XPM */
static char *cc039f11bebb46d2c43279f17f80c6bbsowSOutpOrchGCP3[] = {
/* columns rows colors chars-per-pixel */
"32 32 22 1 ",
"  c None",
". c #1F1A1A",
"X c #425C6B",
"o c #607581",
"O c #C5D0D5",
"+ c #9BADB7",
"@ c #6F828D",
"# c #7F909A",
"$ c #C9C0BE",
"% c #2D0704",
"& c white",
"* c #621914",
"= c #F2DAD2",
"- c #B19E9A",
"; c #BE9B97",
": c #8D6534",
"> c #7B4E16",
", c #672020",
"< c #431A0B",
"1 c #8F3838",
"2 c #946835",
"3 c #B78C61",
/* pixels */
"                                ",
"                                ",
"                                ",
"                                ",
"                                ",
"                                ",
"                                ",
"               ...              ",
"              .Xo..             ",
"             .OoX.o.            ",
"            .+OOo+.o.           ",
"           .@+OO#+Xo.           ",
"           .@@++#X.o.           ",
"         ...o@@XXX.o.           ",
"        ..$.XoX%%X.XX.          ",
"       ..$.XXX.&*==.X.          ",
"       .$.-...;=====.           ",
"        .-.:>.oo+o+.            ",
"         .:>.,.oo+.,.           ",
"          ..,,.<,,1..           ",
"          .o+.<,11,.o.          ",
"          .oo.>>223.o.          ",
"           ..XXo<<+..           ",
"             .<<..,.            ",
"             .<. .,.            ",
"                                ",
"                                ",
"                                ",
"                                ",
"                                ",
"                                ",
"                                "
};
