/* XPM */
static char *e2cbd0fdbd224ac0f89b77b832ab0b19PgbyPpEkdI1zqzA7[] = {
/* columns rows colors chars-per-pixel */
"32 32 5 1 ",
"  c white",
". c #595652",
"X c #43403E",
"o c #696A6A",
"O c #847E87",
/* pixels */
"  .........................XX   ",
"X.oooooOOOOOOooooooooooooo....XX",
".ooOOOOOOOOOOOOOOOOOOOOOOOoooo.X",
"ooOOOOOOOOOOOOOOOOOOOOOOOOOooo..",
"ooOOooOOOOOOOOOooooooOOOOOOOoo..",
".ooooOOOOOOOOOOOOooOOOOOOOOoo.X.",
"....oooooooooOOOOOOOOOOoooo..XXX",
"X.............ooooooo......X....",
".............X.......XX.......oo",
"ooOOOOooooooo...XXX....ooooo.ooo",
"OOOOOOOOOOOOOOoo.X.oooOOOOOooooO",
"OOOOOOOOOOOOOOOoo..ooOOOOOOOoOOO",
"OOOOOOOOOOOOOOooo..ooOOOOOOOOOOO",
"OOOOOOOOOOOOooooo.X.ooOOOOOOOOOO",
"oooooooooooooooo.XXX.oooooooOOOO",
"................XX..X.......oooo",
"X.................oo............",
".oooooOOOOOOOOoooooo.oooooo..XXX",
"ooOOOOOOOOOOOOOOOOOOooOOOoooo.X.",
"ooOOOOOOOOOOOOOOOOOOOoOOOOooo..o",
"ooOOOOOOOOOoOOOOOOOOOOOOOOooo..o",
"oooOOOOOOOooOOOOOOOOOOOOOOooo.X.",
"..ooOOOOooo.oOOOOOOOOOOOooo..XXX",
"............ooooo..........X....",
"oo.......X..................oooo",
"OOOOOOooo....XXX.oo..ooOOOOOOOOO",
"OOOOOOOOOOooo.X.oOoooOOOOOOOOOOO",
"OOOOOOOOOOOoo..oOOooOOOOOOOOOOOO",
"OOOOOOOoOOOoo..oOOOOOOOOOOOOOOOO",
"OOOOOOoooOoo.X.oOOOOOOOOOOOOOOOO",
"OOOoooo.o...XX..oooooooooooOOooo",
".............OOX................"
};
